# xmcd
#
# Track frame offsets:
#	150
#	15906
#	27743
#	37766
#	50942
#	65505
#	78726
#	90313
#	105536
#	121029
#	135547
#	148019
#	161077
#	178960
#	189048
#	203086
#	216887
#	229722
#	243029
#	256978
#
# Disc length: 3604 seconds
#
# Revision: 0
# Processed by: cddbd v1.5.1PL0 Copyright (c) Steve Scherf et al.
# Submitted via: EasyCDDAExtractor 8.2.1.1
#
DISCID=0b0e1214
DTITLE=Don Williams - Images
DYEAR=1978
DGENRE=Country
TTITLE0=I Recall a Gypsy Woman
TTITLE1=Dont You Believe
TTITLE2=Fly Away
TTITLE3=Goodbye isn't Really Good At All
TTITLE4=My Womans Love
TTITLE5=Reason To Be
TTITLE6=Such a Lovely Lady
TTITLE7=Tempted
TTITLE8=Till The Rivers All Run Dry
TTITLE9=She's In Love With A Rodeo Man
TTITLE10=Where The Arkansas River Leaves Oklahoma
TTITLE11=Where Are You
TTITLE12=Where The Arkansas River Leaves Oklahoma
TTITLE13=Why Lord Goodbye
TTITLE14=Cup O'Tea
TTITLE15=Amanda
TTITLE16=Atta Way To Go
TTITLE17=In The Shelter Of Your Eyes
TTITLE18=We Should Be Together
TTITLE19=I Wouldn't Want To Live (if you didn't love me)
EXTD=
EXTT0=
EXTT1=
EXTT2=
EXTT3=
EXTT4=
EXTT5=
EXTT6=
EXTT7=
EXTT8=
EXTT9=
EXTT10=
EXTT11=
EXTT12=
EXTT13=
EXTT14=
EXTT15=
EXTT16=
EXTT17=
EXTT18=
EXTT19=
PLAYORDER=
